<?xml version="1.0" encoding="UTF-8" standalone="no"?>
<!-- Created with Inkscape (http://www.inkscape.org/) -->

<svg
   width="100mm"
   height="100mm"
   viewBox="0 0 100 100"
   version="1.1"
   id="svg1"
   inkscape:export-filename="bluebottlewize2.png"
   inkscape:export-xdpi="96"
   inkscape:export-ydpi="96"
   inkscape:version="1.4 (e7c3feb100, 2024-10-09)"
   sodipodi:docname="bluebottlewize.svg"
   xmlns:inkscape="http://www.inkscape.org/namespaces/inkscape"
   xmlns:sodipodi="http://sodipodi.sourceforge.net/DTD/sodipodi-0.dtd"
   xmlns="http://www.w3.org/2000/svg"
   xmlns:svg="http://www.w3.org/2000/svg">
  <sodipodi:namedview
     id="namedview1"
     pagecolor="#505050"
     bordercolor="#ffffff"
     borderopacity="1"
     inkscape:showpageshadow="0"
     inkscape:pageopacity="0"
     inkscape:pagecheckerboard="1"
     inkscape:deskcolor="#505050"
     inkscape:document-units="mm"
     inkscape:export-bgcolor="#005c9600"
     inkscape:zoom="1.5287038"
     inkscape:cx="139.00665"
     inkscape:cy="154.37915"
     inkscape:window-width="1880"
     inkscape:window-height="1114"
     inkscape:window-x="20"
     inkscape:window-y="66"
     inkscape:window-maximized="1"
     inkscape:current-layer="layer1">
    <inkscape:page
       x="0"
       y="0"
       width="100"
       height="100"
       id="page2"
       margin="0"
       bleed="0" />
  </sodipodi:namedview>
  <defs
     id="defs1">
    <inkscape:path-effect
       effect="bspline"
       id="path-effect5"
       is_visible="true"
       lpeversion="1.3"
       weight="33.333333"
       steps="2"
       helper_size="0"
       apply_no_weight="true"
       apply_with_weight="true"
       only_selected="false"
       uniform="false" />
    <inkscape:path-effect
       effect="bspline"
       id="path-effect4"
       is_visible="true"
       lpeversion="1.3"
       weight="33.333333"
       steps="2"
       helper_size="0"
       apply_no_weight="true"
       apply_with_weight="true"
       only_selected="false"
       uniform="false" />
    <inkscape:path-effect
       effect="bspline"
       id="path-effect2"
       is_visible="true"
       lpeversion="1.3"
       weight="33.333333"
       steps="2"
       helper_size="0"
       apply_no_weight="true"
       apply_with_weight="true"
       only_selected="false"
       uniform="false" />
    <inkscape:path-effect
       effect="bspline"
       id="path-effect4-2"
       is_visible="true"
       lpeversion="1.3"
       weight="33.333333"
       steps="2"
       helper_size="0"
       apply_no_weight="true"
       apply_with_weight="true"
       only_selected="false"
       uniform="false" />
    <inkscape:path-effect
       effect="bspline"
       id="path-effect5-6"
       is_visible="true"
       lpeversion="1.3"
       weight="33.333333"
       steps="2"
       helper_size="0"
       apply_no_weight="true"
       apply_with_weight="true"
       only_selected="false"
       uniform="false" />
  </defs>
  <g
     inkscape:label="Layer 1"
     inkscape:groupmode="layer"
     id="layer1">
    <ellipse
       style="fill:#ffffff;fill-opacity:1;fill-rule:nonzero;stroke:none;stroke-width:0.56859;stroke-linecap:square;stroke-linejoin:bevel;stroke-opacity:1"
       id="path1"
       cx="50.173115"
       cy="59.800587"
       rx="34.828316"
       ry="26.099997"
       transform="rotate(3.1788665)" />
    <ellipse
       style="fill:#7522f7;fill-opacity:1;stroke:#ffffff;stroke-width:0.490608;stroke-linecap:square;stroke-linejoin:bevel;stroke-opacity:1"
       id="path1-5"
       cx="52.900631"
       cy="54.421268"
       rx="31.251364"
       ry="21.655807"
       transform="matrix(0.99591819,0.09026046,-0.01773526,0.99984272,0,0)" />
    <ellipse
       style="fill:#ffffff;fill-opacity:1;stroke:none;stroke-width:0.126325;stroke-linecap:square;stroke-linejoin:bevel;stroke-dasharray:none"
       id="path1-5-2"
       cx="43.725735"
       cy="71.75769"
       rx="7.8816767"
       ry="5.6919451"
       transform="matrix(0.99198832,-0.12632965,0.20245325,0.97929193,0,0)" />
    <ellipse
       style="fill:#af1bff;fill-opacity:1;stroke:none;stroke-width:0.100108;stroke-linecap:square;stroke-linejoin:bevel;stroke-dasharray:none"
       id="path1-5-2-7"
       cx="47.271305"
       cy="72.971687"
       rx="5.7169003"
       ry="4.9280939"
       transform="matrix(0.9884163,-0.15176699,0.16899809,0.98561638,0,0)" />
    <ellipse
       style="fill:#fffaff;fill-opacity:1;stroke:none;stroke-width:0.505748;stroke-linecap:square;stroke-linejoin:bevel;stroke-dasharray:none"
       id="path3"
       cx="22.652988"
       cy="67.358406"
       rx="5.9875646"
       ry="7.8050361"
       transform="rotate(-22.579417)" />
    <ellipse
       style="fill:#ffffff;fill-opacity:1;stroke:none;stroke-width:0.434436;stroke-linecap:square;stroke-linejoin:bevel;stroke-dasharray:none"
       id="path3-6"
       cx="62.422256"
       cy="51.342396"
       rx="5.0997095"
       ry="6.7618227"
       transform="matrix(0.99986827,0.01623061,-0.03334593,0.99944387,0,0)" />
    <path
       style="fill:#2faade;fill-opacity:1;stroke:none;stroke-width:0.49;stroke-linecap:square;stroke-linejoin:bevel;stroke-dasharray:none"
       d="m 28.644291,31.785026 c -0.919898,-2.895466 -2.759693,-8.6864 -3.129355,-14.46654 -0.369662,-5.78014 0.730767,-11.5492553 1.91562,-13.6838557 1.184853,-2.1346005 2.454059,-0.6346298 4.906019,4.3666512 2.451959,5.0012815 6.086502,13.5035045 9.721118,22.0058975 0,0 -12.493504,4.673314 -13.413402,1.777847 z"
       id="path4"
       inkscape:path-effect="#path-effect4"
       inkscape:original-d="M 29.564189,34.680493 C 27.724393,28.88956 25.884598,23.098626 24.044802,17.307692 25.145274,11.538346 26.245703,5.7692308 27.346153,0 c 1.269256,1.50003 2.538463,3 3.807693,4.4999999 3.634687,8.5025631 10.903847,25.5071791 10.903847,25.5071791 z"
       transform="translate(-6.2815038,11.596153)" />
    <path
       style="fill:#eefff5;fill-opacity:1;stroke:none;stroke-width:0.49;stroke-linecap:square;stroke-linejoin:bevel;stroke-dasharray:none"
       d="m 28.22418,3.4773555 c 0.793626,-0.1572746 2.380878,-0.4718241 6.661058,3.8116334 4.280179,4.2834571 11.253012,13.1645661 12.897207,17.7172681 1.644195,4.552701 -2.040242,4.776809 -5.724752,5.000922 0,0 -14.627138,-26.3725488 -13.833513,-26.5298235 z"
       id="path5"
       inkscape:path-effect="#path-effect5"
       inkscape:original-d="M 27.430555,3.6346302 C 29.017806,3.3200811 30.605058,3.005532 32.192306,2.6909826 39.165418,11.572446 46.13825,20.453555 53.111222,29.334841 49.42664,29.558959 42.057693,30.007179 42.057693,30.007179 Z"
       transform="translate(-6.2815038,11.596153)" />
    <path
       style="fill:#ff33ff;fill-opacity:1;stroke:none;stroke-width:0.49;stroke-linecap:square;stroke-linejoin:bevel;stroke-dasharray:none"
       d="m 28.644291,31.785026 c -0.919898,-2.895466 -2.759693,-8.6864 -3.129355,-14.46654 -0.369662,-5.78014 0.730767,-11.5492553 1.91562,-13.6838557 1.184853,-2.1346005 2.454059,-0.6346298 4.906019,4.3666512 2.451959,5.0012815 6.086502,13.5035045 9.721118,22.0058975 0,0 -12.493504,4.673314 -13.413402,1.777847 z"
       id="path4-8"
       inkscape:path-effect="#path-effect4-2"
       inkscape:original-d="M 29.564189,34.680493 C 27.724393,28.88956 25.884598,23.098626 24.044802,17.307692 25.145274,11.538346 26.245703,5.7692308 27.346153,0 c 1.269256,1.50003 2.538463,3 3.807693,4.4999999 3.634687,8.5025631 10.903847,25.5071791 10.903847,25.5071791 z"
       transform="matrix(-1,0,0,1,99.555933,11.088961)" />
    <path
       style="fill:#dbddff;fill-opacity:1;stroke:none;stroke-width:0.49;stroke-linecap:square;stroke-linejoin:bevel;stroke-dasharray:none"
       d="m 28.22418,3.4773555 c 0.793626,-0.1572746 2.380878,-0.4718241 6.661058,3.8116334 4.280179,4.2834571 11.253012,13.1645661 12.897207,17.7172681 1.644195,4.552701 -2.040242,4.776809 -5.724752,5.000922 0,0 -14.627138,-26.3725488 -13.833513,-26.5298235 z"
       id="path5-7"
       inkscape:path-effect="#path-effect5-6"
       inkscape:original-d="M 27.430555,3.6346302 C 29.017806,3.3200811 30.605058,3.005532 32.192306,2.6909826 39.165418,11.572446 46.13825,20.453555 53.111222,29.334841 49.42664,29.558959 42.057693,30.007179 42.057693,30.007179 Z"
       transform="matrix(-1,0,0,1,99.555933,11.088961)" />
    <path
       style="fill:#ffffff;fill-opacity:1;fill-rule:nonzero;stroke:none;stroke-width:0.453303;stroke-linecap:square;stroke-linejoin:bevel;stroke-dasharray:none"
       d="m 43.107867,87.98418 c -9.012325,-1.029256 -17.372364,-4.658886 -22.928032,-9.954535 -2.652143,-2.528017 -4.174182,-4.571841 -5.614041,-7.538651 -1.695503,-3.493556 -2.045772,-4.998313 -2.051129,-8.811638 -0.0052,-3.698465 0.469103,-5.769536 2.033967,-8.881507 1.285865,-2.557137 2.828534,-4.548436 5.354752,-6.911986 1.668135,-1.560721 2.224525,-1.948121 2.61726,-1.82233 0.274317,0.08786 1.141764,0.218678 1.927658,0.290697 l 1.428899,0.130948 -1.09958,1.131673 c -1.60732,1.654241 -3.019988,4.002905 -3.760798,6.252604 -0.544358,1.653114 -0.651631,2.41881 -0.654233,4.66978 -0.0045,3.9279 0.887035,6.765012 3.217501,10.238512 2.02031,3.01122 5.981874,6.628632 9.424654,8.605911 0.645538,0.370748 1.123198,0.724591 1.061471,0.786318 -0.305483,0.305485 -6.921973,-1.762755 -11.601548,-3.626511 -1.651326,-0.65768 -3.069168,-1.195782 -3.150759,-1.195782 -0.350106,0 0.699444,0.934625 3.925152,3.49536 6.634917,5.267135 11.333123,8.086156 15.476056,9.285949 1.623957,0.470297 2.486581,0.556474 5.476695,0.547127 4.131636,-0.01291 5.806329,-0.352621 11.650512,-2.363219 l 3.695557,-1.2714 4.137009,0.658146 c 2.275353,0.361979 4.467444,0.686681 4.871312,0.721556 0.693267,0.05987 0.645393,0.11394 -0.856689,0.967584 -3.33108,1.89308 -8.031072,3.479638 -12.605535,4.255198 -2.680536,0.454464 -9.323324,0.64316 -11.976111,0.340196 z"
       id="path6" />
    <path
       style="fill:#00155a;fill-opacity:1;stroke:none;stroke-width:0.3;stroke-linecap:square;stroke-linejoin:bevel;stroke-dasharray:none"
       d="m 11.965778,72.972235 c 6.972946,2.946428 13.945753,5.892797 20.562237,5.759601 6.616485,-0.133196 12.876119,-3.345946 19.135879,-6.55876 5.002709,2.383693 10.005317,4.767338 14.961757,3.567147 4.956441,-1.200192 9.866316,-5.984125 14.77629,-10.768153 -3.537827,7.188797 -7.075584,14.377451 -11.944379,17.326507 -4.868796,2.949055 -11.068243,1.658278 -17.267813,0.367475 -6.620171,2.502341 -13.240208,5.004632 -19.944338,3.388964 -6.70413,-1.615668 -13.491813,-7.349167 -20.279633,-13.082781 z"
       id="path2"
       inkscape:path-effect="#path-effect2"
       inkscape:original-d="m 11.965778,72.972235 c 0,0 13.945753,5.892797 20.918837,8.839284 6.259885,-3.212879 18.779279,-9.638443 18.779279,-9.638443 0,0 10.005317,4.767338 15.008126,7.151079 4.910072,-4.784124 14.729921,-14.352085 14.729921,-14.352085 0,0 -7.075584,14.377451 -10.613481,21.566391 -6.199694,-1.290829 -18.598711,-3.872409 -18.598711,-3.872409 0,0 -13.240208,5.004633 -19.860512,7.507024 C 25.541281,84.439348 11.965778,72.972235 11.965778,72.972235 Z"
       sodipodi:nodetypes="ccccccccc"
       transform="translate(7.3481318,-1.6245517)" />
  </g>
</svg>
